<svg width="130" height="85" viewBox="0 0 130 85" fill="none" xmlns="http://www.w3.org/2000/svg">
<g clip-path="url(#clip0_8_2203)">
<path d="M121.483 2.77661V11.7656C121.483 13.6153 120.604 14.5409 118.847 14.5422H92.2772C91.2212 14.5422 90.6925 15.027 90.6911 15.9964V36.4813C90.6911 37.1641 90.9122 37.6259 91.3544 37.8666C91.6399 38.0112 91.9574 38.081 92.2772 38.0694H108.113C108.536 38.2563 108.896 38.5621 109.148 38.9496C109.4 39.337 109.534 39.7895 109.533 40.2517V50.0257C109.533 50.6577 109.282 51.2639 108.835 51.7108C108.388 52.1577 107.782 52.4088 107.15 52.4088H92.2732C91.2144 52.4088 90.6858 52.8935 90.6871 53.863V54.007C90.6861 54.0266 90.6861 54.0462 90.6871 54.0658V82.2254C90.6881 82.487 90.667 82.7482 90.6242 83.0063C90.6252 83.0123 90.6252 83.0185 90.6242 83.0245C90.606 83.1219 90.5837 83.2273 90.5593 83.3064C90.51 83.4796 90.442 83.6469 90.3565 83.8054C90.3336 83.8522 90.3078 83.8976 90.2794 83.9413L90.2267 84.0224C90.2042 84.0568 90.1798 84.09 90.1537 84.1218C90.129 84.155 90.1026 84.1868 90.0746 84.2171C90.0482 84.2475 90.0198 84.278 89.9914 84.3064L89.9022 84.3895C89.8718 84.4159 89.8413 84.4423 89.8089 84.4666C89.759 84.5067 89.7068 84.544 89.6527 84.5781L89.5635 84.6309C89.5376 84.6477 89.5104 84.6626 89.4823 84.6755C89.4458 84.6937 89.4113 84.712 89.3728 84.7282L89.2795 84.7688C89.2286 84.7907 89.1765 84.8097 89.1233 84.8256L89.0037 84.8641C88.6474 84.9599 88.2794 85.0056 87.9105 85H76.6742C74.8218 85 73.8963 84.0751 73.8976 82.2254V2.77661C73.8976 0.924187 74.8225 -0.00135066 76.6722 1.47936e-06H118.843C120.603 1.47936e-06 121.483 0.925539 121.483 2.77661Z" fill="#E2F163"/>
<path opacity="0.3" d="M90.3524 83.8053C90.4379 83.6469 90.5059 83.4796 90.5553 83.3064C90.5068 83.4799 90.4388 83.6473 90.3524 83.8053Z" fill="black"/>
<path opacity="0.3" d="M109.529 50.0277V50.2305C109.529 50.8626 109.278 51.4687 108.831 51.9157C108.384 52.3626 107.778 52.6137 107.146 52.6137H92.2691C91.2103 52.6137 90.6817 53.0984 90.683 54.0679V82.2254C90.683 82.2822 90.683 82.341 90.683 82.3958C90.6764 82.5999 90.6554 82.8032 90.6201 83.0043C90.6629 82.7462 90.684 82.485 90.683 82.2234V54.0679C90.682 54.0483 90.682 54.0287 90.683 54.0091V53.8651C90.683 52.8956 91.2117 52.4108 92.2691 52.4108H107.146C107.778 52.4108 108.384 52.1598 108.831 51.7128C109.278 51.2659 109.529 50.6598 109.529 50.0277Z" fill="black"/>
<path d="M119.457 59.8624C119.428 60.5745 119.154 61.2546 118.68 61.7875C118.207 62.3205 117.565 62.6736 116.861 62.7871C116.19 62.8889 115.505 62.7591 114.918 62.4192C114.331 62.0792 113.878 61.5494 113.632 60.9171C113.455 60.377 113.373 59.81 113.391 59.2418C113.373 54.6743 113.391 50.1149 113.391 45.5352C113.391 40.8703 113.379 36.1953 113.391 31.5244C113.391 29.8552 114.425 28.6707 115.973 28.405C116.643 28.3046 117.328 28.4345 117.915 28.7734C118.502 29.1123 118.957 29.6402 119.206 30.2709C119.392 30.8435 119.48 31.4436 119.465 32.0456C119.482 40.2423 119.482 48.4396 119.465 56.6376C119.475 57.7125 119.512 58.7814 119.457 59.8624Z" fill="#896CFE"/>
<path d="M129.582 55.447C129.582 57.3759 128.292 58.7652 126.54 58.7672C124.787 58.7692 123.516 57.4022 123.51 55.4531C123.497 52.1593 123.51 48.8655 123.51 45.5717C123.51 42.3104 123.51 39.051 123.51 35.7897C123.51 33.7838 124.808 32.3782 126.586 32.4148C128.331 32.4513 129.58 33.8345 129.582 35.7836C129.59 42.3388 129.59 48.8932 129.582 55.447Z" fill="#896CFE"/>
<path d="M66.8922 14.3637C66.0809 8.43125 59.6698 3.93066 53.0233 6.3929C52.7042 6.51054 52.3851 6.62614 52.066 6.73972C51.7375 6.35233 51.3906 5.97712 51.0276 5.61813C47.2416 1.87406 41.9095 0.00135214 35.0311 0H2.7827C0.930275 0 0.0047376 0.925538 0.00608974 2.77661V82.2254C0.00608974 84.0751 0.931627 85 2.7827 85H14.0189C15.8687 85 16.7942 84.0751 16.7956 82.2254V57.24C16.7956 56.2725 17.3229 55.7858 18.3816 55.7858H35.0372C41.9101 55.7858 47.2423 53.9131 51.0337 50.1676C51.2162 49.9871 51.3947 49.8046 51.5651 49.616C52.306 49.8553 53.0497 50.0906 53.7961 50.3218C55.0835 50.7203 56.437 50.86 57.7787 50.733C59.1204 50.6059 60.4236 50.2145 61.6133 49.5814C62.803 48.9483 63.8556 48.0859 64.7104 47.0441C65.5653 46.0022 66.2055 44.8015 66.5941 43.5111C66.7543 42.9817 66.8841 42.4422 67.0281 41.9067V14.5868C66.9774 14.5138 66.9023 14.4428 66.8922 14.3637ZM39.9171 31.2262C39.1611 34.0968 37.341 36.5721 34.8264 38.1496C32.3117 39.7271 29.291 40.2886 26.3775 39.72C23.464 39.1514 20.8761 37.4954 19.1391 35.0882C17.4021 32.681 16.6462 29.703 17.0249 26.7588C17.4037 23.8146 18.8886 21.1248 21.1783 19.2356C23.468 17.3464 26.3908 16.3993 29.3534 16.5866C32.3159 16.7739 35.0962 18.0816 37.1297 20.2442C39.1632 22.4067 40.2976 25.2621 40.3024 28.2306C40.3075 29.2414 40.18 30.2486 39.9232 31.2262H39.9171ZM60.4892 35.9398C60.4729 38.5643 58.5218 40.4018 56.1285 40.3248C56.526 38.3213 56.719 36.2826 56.7045 34.2401V21.5476C56.7144 19.7357 56.565 17.9263 56.2583 16.1405C58.5198 16.0999 60.4648 17.9658 60.4831 20.3997C60.5115 24.0362 60.4831 27.6728 60.4831 31.3114C60.4973 32.8488 60.5054 34.3943 60.4952 35.9398H60.4892Z" fill="#896CFE"/>
</g>
<defs>
<clipPath id="clip0_8_2203">
<rect width="129.588" height="85" fill="white"/>
</clipPath>
</defs>
</svg>
