<?xml version="1.0" encoding="UTF-8"?>
<svg version="1.1" xmlns="http://www.w3.org/2000/svg" width="20" height="26">
<path d="M0 0 C3.21954645 2.53453657 4.70432435 4.11297305 6 8 C6.4413121 13.38811289 6.07424894 17.94401821 4 23 C3.34 23 2.68 23 2 23 C1.67 22.01 1.34 21.02 1 20 C0.0409375 20.2475 0.0409375 20.2475 -0.9375 20.5 C-3 21 -3 21 -4 21 C-4 21.66 -4 22.32 -4 23 C-2.35 23 -0.7 23 1 23 C1 23.66 1 24.32 1 25 C-1.8125 25.25 -1.8125 25.25 -5 25 C-6.875 23 -6.875 23 -8 21 C-9.98 21.99 -9.98 21.99 -12 23 C-13.125 18.25 -13.125 18.25 -12 16 C-12.66 16 -13.32 16 -14 16 C-14.56707317 6.3597561 -14.56707317 6.3597561 -11 2 C-7.32705125 -0.4486325 -4.26731035 -0.83183438 0 0 Z M-7 2 C-7 2.33 -7 2.66 -7 3 C-4.69 3.33 -2.38 3.66 0 4 C-0.33 3.34 -0.66 2.68 -1 2 C-2.98 2 -4.96 2 -7 2 Z M-9 3 C-9 3.99 -9 4.98 -9 6 C-8.34 5.01 -7.68 4.02 -7 3 C-7.66 3 -8.32 3 -9 3 Z M1 5 C2 7 2 7 2 7 Z M-11 6 C-10 8 -10 8 -10 8 Z M-1 7 C0 9 0 9 0 9 Z M2 7 C3 9 3 9 3 9 Z M-12 8 C-12 10.31 -12 12.62 -12 15 C-11.67 15 -11.34 15 -11 15 C-11 12.69 -11 10.38 -11 8 C-11.33 8 -11.66 8 -12 8 Z M-9 9 C-8 13 -8 13 -8 13 Z M-6 9 C-6 10.65 -6 12.3 -6 14 C-5.67 14 -5.34 14 -5 14 C-5 12.35 -5 10.7 -5 9 C-5.33 9 -5.66 9 -6 9 Z M-3 10 C-2 13 -2 13 -2 13 Z M3 10 C3 11.65 3 13.3 3 15 C3.33 15 3.66 15 4 15 C4 13.35 4 11.7 4 10 C3.67 10 3.34 10 3 10 Z M0 11 C1 15 1 15 1 15 Z M-4 14 C-3 16 -3 16 -3 16 Z M-1 15 C0 18 0 18 0 18 Z M2 16 C3 18 3 18 3 18 Z " fill="#876BFD" transform="translate(14,0)"/>
<path d="M0 0 C1.98 0.495 1.98 0.495 4 1 C3.67 2.65 3.34 4.3 3 6 C2.01 6.33 1.02 6.66 0 7 C-1.125 2.25 -1.125 2.25 0 0 Z " fill="#886EEE" transform="translate(2,16)"/>
<path d="M0 0 C0.33 0.66 0.66 1.32 1 2 C1.99 2 2.98 2 4 2 C3.67 3.65 3.34 5.3 3 7 C2.34 7 1.68 7 1 7 C0.67 6.01 0.34 5.02 0 4 C-0.99 4.495 -0.99 4.495 -2 5 C-1.125 1.125 -1.125 1.125 0 0 Z " fill="#876EED" transform="translate(15,16)"/>
</svg>
